<svg fill="white" xmlns="http://www.w3.org/2000/svg" viewBox="0 0 32 32" style="enable-background:new 0 0 32 32"
     xml:space="preserve"><path d="M30 29H2a1 1 0 0 1-1-1V4a1 1 0 0 1 1-1h28a1 1 0 0 1 1 1v24a1 1 0 0 1-1 1zM3 27h26V5H3v22z"/>
    <circle cx="10.769" cy="9.4" r="2.4"/>
    <path d="M10.769 13.548a3.768 3.768 0 0 0-3.715 4.399l.153.898c.084.498.516.863 1.02.863h.094l.446 4.237A1.163 1.163 0 0 0 9.925 25h1.688c.6 0 1.102-.457 1.157-1.055l.447-4.237h.093c.505 0 .937-.365 1.021-.863l.153-.898a3.768 3.768 0 0 0-3.715-4.399zM25 15h-6.781a1 1 0 1 1 0-2H25a1 1 0 1 1 0 2z"/>
    <g><path d="M21.61 19h-3.391a1 1 0 1 1 0-2h3.39a1 1 0 1 1 0 2z"/></g>
</svg>